<?xml version="1.0" standalone="no"?>
<!DOCTYPE svg PUBLIC "-//W3C//DTD SVG 20010904//EN"
 "http://www.w3.org/TR/2001/REC-SVG-20010904/DTD/svg10.dtd">
<svg version="1.0" xmlns="http://www.w3.org/2000/svg"
 width="1525.000000pt" height="597.000000pt" viewBox="0 0 1525.000000 597.000000"
 preserveAspectRatio="xMidYMid meet">

<g transform="translate(0.000000,597.000000) scale(0.100000,-0.100000)"
fill="#000000" stroke="none">
<path d="M3410 5819 c-415 -43 -851 -184 -1247 -404 -172 -95 -413 -256 -558
-371 -140 -112 -418 -388 -524 -523 -415 -524 -662 -1176 -730 -1931 -18 -191
-23 -183 59 -109 39 35 108 93 154 129 135 104 140 115 185 346 98 508 325
994 659 1409 84 103 283 306 392 397 455 383 1015 623 1616 693 160 19 481 21
624 5 395 -44 769 -161 1101 -345 320 -177 537 -342 779 -591 226 -233 381
-455 525 -749 130 -264 215 -514 276 -807 51 -245 40 -220 127 -286 42 -32
119 -89 170 -125 l92 -67 0 98 c0 286 -87 704 -214 1031 -297 762 -816 1369
-1496 1749 -448 250 -927 404 -1409 452 -121 12 -459 11 -581 -1z"/>
<path d="M5120 1940 l0 -1670 240 0 240 0 0 1670 0 1670 -240 0 -240 0 0
-1670z"/>
<path d="M7836 3490 c30 -76 34 -155 34 -750 0 -600 -3 -659 -34 -740 -5 -13
22 -15 209 -15 118 0 215 2 215 5 0 3 -7 30 -16 60 -8 30 -18 118 -21 196 l-6
140 52 72 c29 40 55 72 57 72 8 0 157 -316 187 -395 15 -38 31 -88 36 -110
l10 -40 225 0 c223 0 225 0 210 20 -72 97 -145 227 -283 502 -88 177 -161 326
-161 331 0 5 77 117 172 248 204 284 288 403 288 409 0 3 -46 5 -101 5 -89 0
-100 -2 -89 -15 30 -37 6 -78 -297 -495 l-298 -411 -3 348 c-3 343 4 462 32
543 l12 35 -218 0 c-190 0 -217 -2 -212 -15z"/>
<path d="M11041 3465 c38 -87 40 -140 37 -795 -2 -349 -8 -645 -12 -657 -8
-23 -7 -23 78 -23 l87 0 -13 23 c-10 17 -14 146 -16 570 -1 301 1 547 5 547 4
-1 89 -150 188 -332 99 -182 210 -383 247 -447 156 -270 258 -344 495 -358
l102 -6 -27 64 -27 64 0 655 c0 360 3 674 8 698 l7 42 -91 0 -92 0 19 -21 c18
-20 19 -47 22 -585 1 -310 -1 -564 -5 -564 -12 1 -548 977 -572 1043 -11 32
-21 72 -21 90 l0 32 -218 0 -219 0 18 -40z"/>
<path d="M13740 3322 c-72 -140 -225 -258 -367 -283 -60 -11 -63 -12 -63 -40
0 -29 0 -29 63 -29 l63 0 -1 -277 c0 -232 3 -289 17 -346 53 -206 197 -340
380 -354 166 -13 278 61 278 183 0 41 -5 51 -39 85 -36 36 -43 39 -96 39 -55
0 -57 -1 -51 -22 16 -56 16 -75 4 -113 -11 -35 -17 -40 -43 -40 -22 0 -35 8
-51 33 -40 59 -46 112 -51 470 l-5 342 111 0 111 0 0 30 0 29 -107 3 -108 3
-5 177 -5 178 -35 -68z"/>
<path d="M10136 3047 c-46 -94 -156 -177 -256 -193 l-40 -7 49 -52 c63 -66 83
-107 192 -388 49 -127 101 -250 114 -273 51 -87 131 -131 255 -141 44 -3 80
-7 80 -9 0 -1 -8 -22 -19 -46 -46 -106 -120 -168 -199 -168 -72 0 -152 78
-152 147 0 31 -2 34 -22 28 -50 -15 -110 -58 -136 -97 -53 -81 -30 -204 51
-275 111 -97 285 -78 402 44 75 78 126 199 321 768 102 297 196 564 210 594
13 30 23 55 22 56 -2 2 -38 0 -80 -2 -76 -5 -76 -6 -67 -29 6 -18 2 -44 -15
-97 -20 -61 -230 -674 -267 -776 -12 -33 -16 -24 -206 450 -107 266 -198 492
-202 503 -6 15 -12 9 -35 -37z"/>
<path d="M9360 3017 c-80 -23 -143 -61 -205 -122 -141 -140 -198 -371 -145
-580 36 -140 101 -225 217 -282 67 -33 86 -38 169 -41 113 -5 199 17 290 76
100 65 187 187 212 300 l10 43 -45 -41 c-118 -110 -283 -127 -406 -42 -39 26
-89 90 -101 128 -6 20 -4 20 55 13 223 -26 389 94 389 281 0 110 -53 195 -155
248 -42 21 -66 26 -145 29 -56 2 -113 -2 -140 -10z m163 -65 c26 -28 47 -100
47 -157 0 -138 -78 -250 -199 -285 -39 -11 -45 5 -44 115 0 203 123 408 196
327z"/>
<path d="M12715 3020 c-114 -25 -199 -73 -274 -156 -188 -205 -185 -551 5
-741 186 -187 552 -173 738 27 189 205 197 540 18 733 -92 98 -186 137 -342
143 -58 2 -123 -1 -145 -6z m177 -87 c113 -106 150 -469 71 -716 -61 -194
-189 -221 -270 -57 -44 89 -63 193 -63 348 0 212 33 344 106 419 41 43 46 45
85 40 26 -3 52 -16 71 -34z"/>
<path d="M14530 3017 c-80 -23 -143 -61 -205 -122 -141 -140 -198 -371 -145
-580 36 -140 101 -225 217 -282 67 -33 86 -38 169 -41 113 -5 199 17 290 76
100 65 187 187 212 300 l10 43 -45 -41 c-118 -110 -283 -127 -406 -42 -39 26
-89 90 -101 128 -6 20 -4 20 55 13 223 -26 389 94 389 281 0 110 -53 195 -155
248 -42 21 -66 26 -145 29 -56 2 -113 -2 -140 -10z m163 -65 c26 -28 47 -100
47 -157 0 -138 -78 -250 -199 -285 -39 -11 -45 5 -44 115 0 203 123 408 196
327z"/>
<path d="M3540 1505 l0 -1235 230 0 230 0 0 1235 0 1235 -230 0 -230 0 0
-1235z"/>
<path d="M1240 2705 c-266 -42 -471 -145 -650 -325 -236 -237 -372 -553 -373
-865 0 -224 56 -418 179 -622 205 -339 491 -527 881 -578 63 -8 121 -15 129
-15 12 0 14 51 14 348 l0 348 -72 23 c-177 56 -318 160 -370 272 -67 143 -63
328 9 461 58 107 209 213 376 264 l57 18 0 343 0 343 -47 -1 c-27 -1 -86 -7
-133 -14z"/>
<path d="M6086 2699 c-3 -13 -8 -153 -11 -311 -6 -252 -4 -290 10 -318 17 -34
65 -60 156 -85 188 -51 339 -260 339 -470 0 -140 -46 -251 -145 -350 -73 -73
-141 -111 -260 -145 l-90 -26 -3 -347 c-2 -328 -1 -347 16 -347 113 0 356 55
480 108 305 132 557 422 665 767 93 298 69 565 -78 860 -208 418 -536 644
-987 680 -86 7 -87 7 -92 -16z"/>
<path d="M4340 1210 l0 -940 230 0 230 0 0 940 0 940 -230 0 -230 0 0 -940z"/>
<path d="M2750 1140 l0 -870 230 0 230 0 0 870 0 870 -230 0 -230 0 0 -870z"/>
<path d="M1310 1922 c-205 -54 -333 -232 -317 -442 11 -145 114 -298 244 -361
33 -16 71 -25 121 -27 l72 -4 0 426 0 426 -27 -1 c-16 0 -57 -8 -93 -17z"/>
<path d="M6080 1511 c0 -351 2 -423 14 -427 25 -10 140 17 191 44 70 38 146
119 186 199 33 66 34 72 34 183 0 109 -2 119 -32 182 -65 139 -186 227 -320
236 l-73 5 0 -422z"/>
<path d="M7851 1723 c16 -61 18 -129 18 -678 1 -601 -3 -678 -33 -755 -5 -13
22 -15 209 -15 211 0 216 0 210 20 -25 85 -35 184 -33 316 l3 144 86 7 c340
26 614 235 661 506 37 218 -97 405 -344 481 -100 30 -240 41 -532 41 l-262 0
17 -67z m587 -8 c68 -20 133 -86 163 -163 31 -79 37 -224 15 -325 -33 -145
-121 -288 -220 -356 -38 -26 -131 -61 -163 -61 -11 0 -13 86 -13 460 l0 460
83 0 c46 0 106 -7 135 -15z"/>
<path d="M11090 1765 c-43 -80 -207 -182 -333 -207 -59 -12 -67 -16 -53 -27
28 -23 56 -136 56 -226 l0 -83 -37 34 c-85 78 -234 86 -367 21 -349 -173 -357
-773 -13 -942 40 -19 99 -40 132 -46 87 -16 223 -5 356 30 64 17 160 36 215
42 54 7 100 13 102 15 2 1 -5 26 -15 56 -16 48 -18 114 -23 707 -4 587 -7 651
-20 626z m-369 -598 l34 -23 3 -387 c3 -438 9 -408 -80 -387 -76 18 -145 90
-176 183 -81 248 18 636 164 637 12 0 36 -10 55 -23z"/>
<path d="M14630 1612 c-72 -140 -225 -258 -367 -283 -60 -11 -63 -12 -63 -40
0 -29 0 -29 63 -29 l63 0 -1 -277 c0 -232 3 -289 17 -346 53 -206 197 -340
380 -354 166 -13 278 61 278 183 0 41 -5 51 -39 85 -36 36 -43 39 -96 39 -55
0 -57 -1 -51 -22 16 -56 16 -75 4 -113 -11 -35 -17 -40 -43 -40 -22 0 -35 8
-51 33 -40 59 -46 112 -51 470 l-5 342 111 0 111 0 0 30 0 29 -107 3 -108 3
-5 177 -5 178 -35 -68z"/>
<path d="M1950 800 l0 -530 235 0 235 0 0 530 0 530 -235 0 -235 0 0 -530z"/>
<path d="M9405 1310 c-114 -25 -199 -73 -274 -156 -188 -205 -185 -551 5 -741
186 -187 552 -173 738 27 189 205 197 540 18 733 -92 98 -186 137 -342 143
-58 2 -123 -1 -145 -6z m177 -87 c113 -106 150 -469 71 -716 -61 -194 -189
-221 -270 -57 -44 89 -63 193 -63 348 0 212 33 344 106 419 41 43 46 45 85 40
26 -3 52 -16 71 -34z"/>
<path d="M11606 1310 c-54 -14 -133 -56 -183 -96 -59 -48 -134 -166 -163 -254
-22 -65 -25 -93 -24 -205 0 -108 4 -140 22 -190 31 -83 84 -159 140 -200 226
-166 568 -74 696 187 20 40 39 89 43 108 l6 35 -47 -43 c-71 -66 -125 -87
-222 -87 -70 0 -88 4 -139 30 -106 54 -165 164 -165 308 0 181 91 357 184 357
89 0 103 -132 26 -247 -17 -24 -30 -48 -30 -54 0 -21 66 -49 115 -49 153 0
213 201 97 323 -53 56 -117 80 -222 83 -52 2 -112 -1 -134 -6z"/>
<path d="M12593 1305 c-170 -46 -283 -167 -283 -304 0 -162 176 -220 273 -89
l20 26 -36 32 c-48 42 -71 104 -65 176 4 49 10 62 37 86 94 84 238 -41 243
-211 1 -37 -39 -93 -91 -125 -20 -13 -84 -40 -141 -61 -145 -52 -206 -83 -256
-131 -56 -55 -85 -114 -91 -186 -18 -194 177 -299 367 -197 40 21 87 60 137
113 l76 81 -6 -70 c-4 -39 -15 -103 -25 -143 -10 -39 -18 -72 -16 -72 1 0 30
11 65 24 114 43 252 54 356 29 23 -5 23 -4 -7 58 -44 95 -51 151 -50 403 0
127 -5 257 -11 290 -25 137 -103 227 -230 267 -72 23 -190 24 -266 4z m181
-684 c-20 -53 -64 -105 -104 -121 -64 -27 -140 47 -140 137 0 52 26 84 143
177 45 36 89 75 97 88 14 21 15 13 18 -107 2 -102 -1 -139 -14 -174z"/>
<path d="M13435 1296 c-108 -50 -165 -133 -165 -238 0 -71 16 -113 65 -166 54
-60 119 -97 256 -147 162 -59 237 -96 281 -140 73 -73 74 -135 5 -168 -33 -17
-44 -17 -87 -7 -64 15 -152 73 -213 139 -48 51 -97 139 -97 175 0 16 -5 17
-37 11 -130 -23 -223 -112 -223 -212 0 -145 181 -263 406 -263 205 0 375 84
441 218 24 48 28 70 28 137 0 69 -4 89 -32 147 -58 123 -129 173 -323 229
-154 45 -228 96 -246 171 -5 21 0 33 21 54 24 24 32 26 83 22 34 -3 81 -16
115 -32 78 -37 181 -135 216 -204 l28 -55 6 44 c11 82 47 178 91 244 l44 65
-306 0 c-301 0 -308 -1 -357 -24z"/>
</g>
</svg>
